<?xml version="1.0" standalone="no"?>
<!DOCTYPE svg PUBLIC "-//W3C//DTD SVG 20010904//EN"
 "http://www.w3.org/TR/2001/REC-SVG-20010904/DTD/svg10.dtd">
<svg version="1.0" xmlns="http://www.w3.org/2000/svg"
 width="315.000000pt" height="315.000000pt" viewBox="0 0 315.000000 315.000000"
 preserveAspectRatio="xMidYMid meet">
<metadata>
Created by potrace 1.14, written by Peter Selinger 2001-2017
</metadata>
<g transform="translate(0.000000,315.000000) scale(0.100000,-0.100000)"
fill="#000000" stroke="none">
<path d="M230 3143 c-106 -39 -176 -101 -208 -184 -21 -54 -21 -63 -21 -1386
l-1 -1331 22 -54 c29 -69 101 -140 170 -167 52 -20 67 -20 1393 -18 l1340 2
57 28 c68 33 120 91 147 161 19 50 20 83 18 1391 l-2 1340 -28 57 c-33 68 -91
120 -161 147 -50 19 -86 20 -1381 20 -731 -1 -1337 -3 -1345 -6z"/>
</g>
</svg>
